<svg width="30" height="30" viewBox="0 0 30 30" fill="none" xmlns="http://www.w3.org/2000/svg">
<path d="M15 10.3828C12.8145 10.3828 11.0449 12.4512 11.0449 15C11.0449 17.5488 12.8145 19.6172 15 19.6172C17.1855 19.6172 18.9551 17.5547 18.9551 15C18.9551 12.4512 17.1855 10.3828 15 10.3828ZM16.6465 17.3086C16.6465 17.4902 16.5 17.6367 16.3184 17.6367H13.6816C13.5 17.6367 13.3535 17.4902 13.3535 17.3086V16.6523C13.3535 16.4707 13.5 16.3242 13.6816 16.3242H14.3379V14.0391L14.3203 14.0508C14.168 14.1504 13.9629 14.1094 13.8633 13.957L13.5 13.4063C13.4004 13.2539 13.4414 13.0488 13.5938 12.9492L14.2266 12.5273C14.3906 12.4219 14.5781 12.3633 14.7773 12.3633H15.334C15.5156 12.3633 15.6621 12.5098 15.6621 12.6914V16.3184H16.3184C16.5 16.3184 16.6465 16.4648 16.6465 16.6465V17.3086ZM26.8652 7.08984H3.13477C2.4082 7.08984 1.81641 7.68164 1.81641 8.4082V21.5918C1.81641 22.3184 2.4082 22.9102 3.13477 22.9102H26.8652C27.5918 22.9102 28.1836 22.3184 28.1836 21.5918V8.4082C28.1836 7.68164 27.5918 7.08984 26.8652 7.08984ZM26.2031 18.293C24.7441 18.293 23.5664 19.4707 23.5664 20.9297H6.43359C6.43359 19.4707 5.25586 18.293 3.79688 18.293V11.707C5.25586 11.707 6.43359 10.5293 6.43359 9.07031H23.5723C23.5723 10.5293 24.75 11.707 26.209 11.707V18.293H26.2031Z" fill="black"/>
</svg>
