<svg width="30" height="30" viewBox="0 0 30 30" fill="none" xmlns="http://www.w3.org/2000/svg">
<g clip-path="url(#clip0_1_6)">
<path d="M15 0C6.71572 0 0 6.71572 0 15C0 23.2842 6.71572 29.9999 15 29.9999C23.2842 29.9999 29.9999 23.2842 29.9999 15C29.9911 6.71942 23.2806 0.00885184 15 0ZM15 27.8571C7.89916 27.8571 2.14283 22.1008 2.14283 15C2.14283 7.89916 7.89916 2.14283 15 2.14283C22.1008 2.14283 27.8571 7.89916 27.8571 15C27.8494 22.0976 22.0976 27.8494 15 27.8571Z" fill="black"/>
<path d="M15 5.35712C14.4083 5.35712 13.9286 5.83681 13.9286 6.42857V13.9286H6.42863C5.83687 13.9286 5.35718 14.4083 5.35718 15C5.35718 15.5918 5.83687 16.0714 6.42863 16.0714H15C15.5918 16.0714 16.0715 15.5917 16.0715 15V6.42857C16.0715 5.83681 15.5918 5.35712 15 5.35712Z" fill="black"/>
</g>
<defs>
<clipPath id="clip0_1_6">
<rect width="30" height="30" fill="white"/>
</clipPath>
</defs>
</svg>
